<svg id="visual" viewBox="0 0 900 600" width="900" height="600" xmlns="http://www.w3.org/2000/svg" xmlns:xlink="http://www.w3.org/1999/xlink" version="1.1"><rect x="0" y="0" width="900" height="600" fill="#001220"></rect><defs><linearGradient id="grad1_0" x1="33.3%" y1="0%" x2="100%" y2="100%"><stop offset="20%" stop-color="#001220" stop-opacity="1"></stop><stop offset="80%" stop-color="#001220" stop-opacity="1"></stop></linearGradient></defs><defs><linearGradient id="grad2_0" x1="0%" y1="0%" x2="66.7%" y2="100%"><stop offset="20%" stop-color="#001220" stop-opacity="1"></stop><stop offset="80%" stop-color="#001220" stop-opacity="1"></stop></linearGradient></defs><g transform="translate(900, 0)"><path d="M0 297.5C-21.8 259.3 -43.5 221.1 -67.1 206.4C-90.6 191.6 -115.8 200.3 -144.6 199C-173.4 197.8 -205.7 186.7 -230.6 167.5C-255.5 148.4 -273 121.2 -282.9 91.9C-292.8 62.7 -295.1 31.3 -297.5 0L0 0Z" fill="#FBAE3C"></path></g><g transform="translate(0, 600)"><path d="M0 -297.5C17.5 -254.5 34.9 -211.5 67.4 -207.3C99.8 -203.2 147.2 -237.8 166.9 -229.8C186.6 -221.7 178.6 -170.9 197.4 -143.4C216.2 -116 261.8 -111.9 282.9 -91.9C304 -71.9 300.7 -36 297.5 0L0 0Z" fill="#FBAE3C"></path></g></svg>