<svg id="visual" viewBox="0 0 900 600" width="900" height="600" xmlns="http://www.w3.org/2000/svg" xmlns:xlink="http://www.w3.org/1999/xlink" version="1.1"><rect x="0" y="0" width="900" height="600" fill="#001220"></rect><defs><linearGradient id="grad1_0" x1="33.3%" y1="0%" x2="100%" y2="100%"><stop offset="20%" stop-color="#001220" stop-opacity="1"></stop><stop offset="80%" stop-color="#001220" stop-opacity="1"></stop></linearGradient></defs><defs><linearGradient id="grad2_0" x1="0%" y1="0%" x2="66.7%" y2="100%"><stop offset="20%" stop-color="#001220" stop-opacity="1"></stop><stop offset="80%" stop-color="#001220" stop-opacity="1"></stop></linearGradient></defs><g transform="translate(900, 0)"><path d="M0 297.5C-28.2 277 -56.3 256.6 -76 234C-95.7 211.3 -107 186.4 -125.2 172.3C-143.4 158.2 -168.5 154.9 -199 144.6C-229.6 134.3 -265.6 117.2 -282.9 91.9C-300.2 66.7 -298.8 33.3 -297.5 0L0 0Z" fill="#FBAE3C"></path></g><g transform="translate(0, 600)"><path d="M0 -297.5C18.7 -259.2 37.4 -221 70.8 -217.8C104.1 -214.6 152.1 -246.5 171.6 -236.2C191.1 -226 182.1 -173.6 199.8 -145.2C217.6 -116.7 262.2 -112.1 282.9 -91.9C303.6 -71.7 300.5 -35.9 297.5 0L0 0Z" fill="#FBAE3C"></path></g></svg>