<svg id="visual" viewBox="0 0 900 600" width="900" height="600" xmlns="http://www.w3.org/2000/svg" xmlns:xlink="http://www.w3.org/1999/xlink" version="1.1"><rect x="0" y="0" width="900" height="600" fill="#001220"></rect><defs><linearGradient id="grad1_0" x1="33.3%" y1="0%" x2="100%" y2="100%"><stop offset="20%" stop-color="#001220" stop-opacity="1"></stop><stop offset="80%" stop-color="#001220" stop-opacity="1"></stop></linearGradient></defs><defs><linearGradient id="grad2_0" x1="0%" y1="0%" x2="66.7%" y2="100%"><stop offset="20%" stop-color="#001220" stop-opacity="1"></stop><stop offset="80%" stop-color="#001220" stop-opacity="1"></stop></linearGradient></defs><g transform="translate(900, 0)"><path d="M0 297.5C-20.4 258.5 -40.7 219.4 -68.9 212.1C-97.1 204.7 -133 229 -166.3 229C-199.6 228.9 -230.3 204.5 -240.6 174.8C-251 145.2 -241.2 110.4 -247.3 80.3C-253.4 50.3 -275.4 25.2 -297.5 0L0 0Z" fill="#FBAE3C"></path></g><g transform="translate(0, 600)"><path d="M0 -297.5C22.3 -258.4 44.5 -219.4 66.4 -204.5C88.4 -189.5 110 -198.7 146.4 -201.4C182.7 -204.2 233.8 -200.5 240.6 -174.8C247.5 -149.2 210 -101.7 212.1 -68.9C214.2 -36.1 255.8 -18.1 297.5 0L0 0Z" fill="#FBAE3C"></path></g></svg>