<svg id="visual" viewBox="0 0 900 600" width="900" height="600" xmlns="http://www.w3.org/2000/svg" xmlns:xlink="http://www.w3.org/1999/xlink" version="1.1"><rect x="0" y="0" width="900" height="600" fill="#001220"></rect><defs><linearGradient id="grad1_0" x1="33.3%" y1="0%" x2="100%" y2="100%"><stop offset="20%" stop-color="#001220" stop-opacity="1"></stop><stop offset="80%" stop-color="#001220" stop-opacity="1"></stop></linearGradient></defs><defs><linearGradient id="grad2_0" x1="0%" y1="0%" x2="66.7%" y2="100%"><stop offset="20%" stop-color="#001220" stop-opacity="1"></stop><stop offset="80%" stop-color="#001220" stop-opacity="1"></stop></linearGradient></defs><g transform="translate(900, 0)"><path d="M0 297.5C-21.4 263.7 -42.7 229.9 -73.2 225.4C-103.8 220.9 -143.4 245.8 -174.8 240.6C-206.3 235.5 -229.4 200.5 -227.3 165.2C-225.3 129.9 -197.9 94.3 -205.4 66.7C-212.9 39.2 -255.2 19.6 -297.5 0L0 0Z" fill="#FBAE3C"></path></g><g transform="translate(0, 600)"><path d="M0 -297.5C23.5 -265.4 46.9 -233.4 72.3 -222.5C97.7 -211.7 125 -221.9 159.9 -220.1C194.8 -218.2 237.3 -204.3 240.6 -174.8C244 -145.4 208.2 -100.3 211.1 -68.6C214.1 -36.9 255.8 -18.4 297.5 0L0 0Z" fill="#FBAE3C"></path></g></svg>