<svg id="visual" viewBox="0 0 900 600" width="900" height="600" xmlns="http://www.w3.org/2000/svg" xmlns:xlink="http://www.w3.org/1999/xlink" version="1.1"><rect width="900" height="600" fill="#14213d"></rect><g><g transform="translate(554 342)"><path d="M32.6 -9.8C36.6 1.8 30.3 17.4 19.6 24.7C8.8 32 -6.4 30.9 -16.1 23.5C-25.7 16.2 -29.8 2.6 -26.2 -8.4C-22.6 -19.4 -11.3 -27.8 1.5 -28.3C14.3 -28.8 28.6 -21.4 32.6 -9.8Z" fill="none" stroke="#ffffff" stroke-width="20"></path></g><g transform="translate(339 503)"><path d="M18.9 -5.7C21.4 1.6 18.2 11.2 12.1 15.3C6 19.4 -3 18 -9.3 13.3C-15.6 8.6 -19.2 0.6 -17.1 -6C-15.1 -12.7 -7.6 -17.9 0.3 -18C8.2 -18.1 16.3 -13.1 18.9 -5.7Z" fill="none" stroke="#ffffff" stroke-width="20"></path></g><g transform="translate(59 239)"><path d="M25.1 -8.9C28.7 2.8 25.1 16.2 15.5 23.7C5.9 31.2 -9.6 33 -19.7 25.9C-29.8 18.9 -34.5 3.1 -30.3 -9.5C-26.1 -22.2 -13 -31.6 -1.1 -31.2C10.8 -30.9 21.5 -20.7 25.1 -8.9Z" fill="none" stroke="#ffffff" stroke-width="20"></path></g><g transform="translate(616 260)"><path d="M23.5 -7.2C27.4 4.4 25.4 18.3 16.7 25C8 31.8 -7.3 31.5 -16.6 24.4C-26 17.2 -29.3 3.3 -25.6 -8.1C-21.8 -19.5 -10.9 -28.4 -0.6 -28.2C9.8 -28 19.6 -18.8 23.5 -7.2Z" fill="none" stroke="#ffffff" stroke-width="20"></path></g><g transform="translate(540 168)"><path d="M18.6 -6C20.8 1 17.2 9.9 10.8 14.4C4.4 19 -4.9 19.2 -11.3 14.7C-17.6 10.3 -21.2 1.1 -18.8 -6C-16.5 -13.1 -8.2 -18.1 0 -18.1C8.1 -18.1 16.3 -13 18.6 -6Z" fill="none" stroke="#ffffff" stroke-width="20"></path></g><g transform="translate(240 391)"><path d="M19.1 -6.1C22 2.8 19.8 13.5 12.7 19C5.6 24.5 -6.3 24.8 -13.5 19.4C-20.6 14 -23 2.9 -20 -6.2C-17 -15.3 -8.5 -22.4 -0.2 -22.3C8.1 -22.3 16.2 -15.1 19.1 -6.1Z" fill="none" stroke="#ffffff" stroke-width="20"></path></g><g transform="translate(818 508)"><path d="M22.4 -7.9C24.8 0.2 19.7 10.1 11.7 16C3.6 21.8 -7.4 23.6 -14.3 18.7C-21.3 13.9 -24.2 2.6 -21.1 -6.4C-18.1 -15.3 -9 -21.9 0.5 -22C10 -22.2 20 -15.9 22.4 -7.9Z" fill="none" stroke="#ffffff" stroke-width="20"></path></g><g transform="translate(361 364)"><path d="M22.8 -7.5C25.7 1.7 21.7 13 13.4 19.3C5 25.6 -7.6 26.7 -15.8 21C-24 15.2 -27.6 2.5 -24.2 -7.3C-20.9 -17.1 -10.4 -24 -0.3 -23.9C9.9 -23.8 19.8 -16.7 22.8 -7.5Z" fill="none" stroke="#ffffff" stroke-width="20"></path></g><g transform="translate(706 397)"><path d="M14.2 -4.4C16.3 1.8 14.5 9.6 9.6 13.1C4.7 16.7 -3.2 16 -8.3 12.1C-13.4 8.3 -15.6 1.2 -13.8 -4.7C-11.9 -10.6 -6 -15.4 0 -15.4C6.1 -15.5 12.1 -10.7 14.2 -4.4Z" fill="none" stroke="#ffffff" stroke-width="20"></path></g><g transform="translate(836 96)"><path d="M25.8 -9.1C29.6 3.3 26.2 17.3 16.6 24.6C7 32 -8.7 32.8 -19.4 25.3C-30.1 17.9 -35.9 2.2 -31.8 -10.6C-27.8 -23.3 -13.9 -33.1 -1.4 -32.6C11 -32.1 22.1 -21.4 25.8 -9.1Z" fill="none" stroke="#ffffff" stroke-width="20"></path></g><g transform="translate(346 175)"><path d="M20.1 -6C22.9 1.9 19.6 12.2 12.7 17.2C5.8 22.2 -4.8 21.7 -12.5 16.3C-20.2 11 -25 0.7 -22.4 -7C-19.8 -14.6 -9.9 -19.6 -0.6 -19.4C8.7 -19.2 17.4 -13.9 20.1 -6Z" fill="none" stroke="#ffffff" stroke-width="20"></path></g><g transform="translate(377 19)"><path d="M27 -7.9C30.5 1.8 25.5 15.1 16.3 21.6C7.1 28.1 -6.5 27.8 -15.8 21.2C-25.1 14.5 -30.2 1.5 -26.9 -8C-23.6 -17.6 -11.8 -23.8 0 -23.8C11.8 -23.8 23.6 -17.6 27 -7.9Z" fill="none" stroke="#ffffff" stroke-width="20"></path></g><g transform="translate(287 79)"><path d="M21.1 -6.7C24.3 2.7 21.5 14.2 13.6 20.4C5.7 26.5 -7.3 27.2 -15 21.4C-22.8 15.7 -25.2 3.3 -21.8 -6.5C-18.5 -16.3 -9.2 -23.6 -0.1 -23.5C9 -23.5 18 -16.1 21.1 -6.7Z" fill="none" stroke="#ffffff" stroke-width="20"></path></g><g transform="translate(245 257)"><path d="M24.7 -7.2C28.6 3.8 25.8 17.8 17.2 24.3C8.5 30.7 -6 29.5 -15.6 22.4C-25.1 15.2 -29.6 2.1 -26.2 -8.4C-22.8 -18.9 -11.4 -26.7 -0.5 -26.5C10.4 -26.4 20.9 -18.3 24.7 -7.2Z" fill="none" stroke="#ffffff" stroke-width="20"></path></g><g transform="translate(453 580)"><path d="M17.9 -6.1C20.1 1 16.7 9.7 10.8 13.8C4.8 17.9 -3.8 17.4 -9.6 13.2C-15.5 8.9 -18.7 0.9 -16.6 -6C-14.6 -12.8 -7.3 -18.5 0.3 -18.6C7.8 -18.7 15.7 -13.2 17.9 -6.1Z" fill="none" stroke="#ffffff" stroke-width="20"></path></g><g transform="translate(667 88)"><path d="M27.9 -8.2C32.1 4 28.8 19.5 19.5 26.1C10.3 32.6 -4.9 30.2 -15.5 22.3C-26 14.4 -31.9 1 -28.6 -9.9C-25.2 -20.8 -12.6 -29.4 -0.4 -29.3C11.8 -29.1 23.6 -20.3 27.9 -8.2Z" fill="none" stroke="#ffffff" stroke-width="20"></path></g><g transform="translate(827 210)"><path d="M23.4 -7.2C26.9 3.2 24 16.1 15.6 22.5C7.1 28.9 -6.8 28.8 -14.9 22.5C-22.9 16.2 -24.9 3.7 -21.4 -6.6C-18 -17 -9 -25.3 0.5 -25.4C9.9 -25.6 19.9 -17.6 23.4 -7.2Z" fill="none" stroke="#ffffff" stroke-width="20"></path></g><g transform="translate(887 360)"><path d="M25.7 -8C29 1.8 24.4 14.5 15.9 20.2C7.5 25.9 -4.7 24.7 -13.4 18.4C-22 12.1 -27.1 0.8 -24.3 -8.3C-21.4 -17.4 -10.7 -24.3 0.2 -24.4C11.2 -24.5 22.4 -17.7 25.7 -8Z" fill="none" stroke="#ffffff" stroke-width="20"></path></g><g transform="translate(78 337)"><path d="M18.6 -5.1C21.2 1.8 18.2 11.4 11.8 16C5.4 20.6 -4.4 20.1 -10.1 15.6C-15.7 11.1 -17.1 2.5 -14.8 -4.1C-12.4 -10.7 -6.2 -15.3 0.9 -15.6C8 -16 16.1 -11.9 18.6 -5.1Z" fill="none" stroke="#ffffff" stroke-width="20"></path></g><g transform="translate(487 452)"><path d="M15.4 -4.9C17.7 2.1 15.7 10.5 10.2 14.6C4.7 18.8 -4.3 18.6 -10.2 14.3C-16 10 -18.6 1.5 -16.4 -5.4C-14.2 -12.3 -7.1 -17.7 -0.3 -17.6C6.5 -17.6 13.1 -12 15.4 -4.9Z" fill="none" stroke="#ffffff" stroke-width="20"></path></g><g transform="translate(147 402)"><path d="M24.7 -7.3C28.4 3.2 25.2 16.7 16.1 23.7C7 30.7 -8 31.2 -18 24.1C-28.1 17 -33.1 2.3 -29.3 -8.5C-25.5 -19.2 -12.7 -26 -1.1 -25.7C10.5 -25.3 21.1 -17.8 24.7 -7.3Z" fill="none" stroke="#ffffff" stroke-width="20"></path></g><g transform="translate(55 72)"><path d="M16.1 -4.6C18.6 2.3 16.6 11.2 11.1 15.3C5.6 19.3 -3.5 18.3 -9.3 13.9C-15.1 9.4 -17.6 1.5 -15.4 -5C-13.3 -11.4 -6.7 -16.3 0.1 -16.3C6.8 -16.3 13.7 -11.5 16.1 -4.6Z" fill="none" stroke="#ffffff" stroke-width="20"></path></g><g transform="translate(434 236)"><path d="M14 -4.1C15.9 1.3 13.7 8.5 8.8 12.1C3.8 15.6 -3.7 15.6 -8.9 11.9C-14 8.3 -16.7 1 -14.8 -4.4C-12.9 -9.8 -6.5 -13.4 -0.2 -13.3C6.1 -13.3 12.1 -9.6 14 -4.1Z" fill="none" stroke="#ffffff" stroke-width="20"></path></g><g transform="translate(150 563)"><path d="M23.2 -6.9C26.7 3.2 23.9 16.1 15.3 22.8C6.6 29.5 -7.8 30 -16.3 23.6C-24.8 17.1 -27.3 3.7 -23.6 -6.7C-19.9 -17.2 -10 -24.7 -0.1 -24.6C9.9 -24.6 19.7 -17.1 23.2 -6.9Z" fill="none" stroke="#ffffff" stroke-width="20"></path></g><g transform="translate(508 7)"><path d="M27.7 -8.1C31.3 2.1 26.5 16 17.2 22.5C7.8 29.1 -6.1 28.3 -15.9 21.3C-25.7 14.3 -31.5 1.1 -28.2 -8.8C-24.8 -18.6 -12.4 -25.2 -0.2 -25.1C12 -25 24.1 -18.4 27.7 -8.1Z" fill="none" stroke="#ffffff" stroke-width="20"></path></g><g transform="translate(604 423)"><path d="M26.9 -8C30.4 1.9 25.6 15.3 16.6 21.5C7.6 27.8 -5.6 26.9 -14 20.5C-22.3 14.1 -25.8 2.3 -22.6 -7.2C-19.5 -16.7 -9.7 -23.9 1 -24.3C11.7 -24.6 23.5 -18 26.9 -8Z" fill="none" stroke="#ffffff" stroke-width="20"></path></g><g transform="translate(585 583)"><path d="M26.1 -8.3C29.9 3.2 26.3 17.3 17.7 23.4C9.1 29.4 -4.7 27.4 -14.3 20.3C-23.8 13.2 -29.3 0.9 -26.2 -9.6C-23.1 -20.1 -11.6 -29 -0.2 -28.9C11.1 -28.9 22.3 -19.9 26.1 -8.3Z" fill="none" stroke="#ffffff" stroke-width="20"></path></g><g transform="translate(80 465)"><path d="M22.9 -7.5C25.9 1.7 21.8 13.1 14 18.6C6.1 24.2 -5.5 23.9 -13.5 18.2C-21.5 12.5 -25.9 1.3 -23 -7.7C-20.2 -16.8 -10.1 -23.8 -0.1 -23.7C10 -23.7 19.9 -16.7 22.9 -7.5Z" fill="none" stroke="#ffffff" stroke-width="20"></path></g><g transform="translate(230 159)"><path d="M22.9 -7.6C25.5 0.6 20.6 11.2 12.4 17.2C4.1 23.2 -7.5 24.8 -14.8 19.7C-22 14.6 -24.9 2.8 -21.7 -6.2C-18.5 -15.2 -9.2 -21.5 0.4 -21.6C10.1 -21.8 20.3 -15.8 22.9 -7.6Z" fill="none" stroke="#ffffff" stroke-width="20"></path></g><g transform="translate(671 510)"><path d="M19 -6.6C21.5 1.4 18.1 10.8 11.5 15.6C4.9 20.3 -4.9 20.3 -11.5 15.6C-18.1 10.9 -21.5 1.4 -19 -6.6C-16.6 -14.5 -8.3 -21 0 -21C8.3 -21 16.6 -14.5 19 -6.6Z" fill="none" stroke="#ffffff" stroke-width="20"></path></g><g transform="translate(443 83)"><path d="M23.1 -7.4C26.4 2.8 23.3 15.3 15.4 21C7.4 26.8 -5.3 25.8 -14.3 19.4C-23.2 13 -28.4 1 -25.4 -8.7C-22.3 -18.5 -11.2 -26.1 -0.7 -25.9C9.9 -25.7 19.7 -17.6 23.1 -7.4Z" fill="none" stroke="#ffffff" stroke-width="20"></path></g><g transform="translate(868 10)"><path d="M22.2 -6.8C24.9 1.1 20.6 11.7 12.6 17.5C4.7 23.3 -6.9 24.3 -14.4 19C-21.9 13.7 -25.5 2.2 -22.4 -6.2C-19.4 -14.6 -9.7 -19.7 0 -19.7C9.8 -19.7 19.5 -14.6 22.2 -6.8Z" fill="none" stroke="#ffffff" stroke-width="20"></path></g><g transform="translate(177 46)"><path d="M25.2 -8.8C28.4 1.5 23.7 13.8 14.9 20.1C6.1 26.3 -6.7 26.6 -15 20.5C-23.3 14.5 -27.1 2.2 -23.8 -8.2C-20.6 -18.6 -10.3 -27.2 0.4 -27.4C11 -27.5 22.1 -19.1 25.2 -8.8Z" fill="none" stroke="#ffffff" stroke-width="20"></path></g><g transform="translate(708 251)"><path d="M20.8 -6.6C23.7 2.1 20.5 13 13.7 17.7C6.8 22.5 -3.8 21.1 -10.9 15.8C-18 10.4 -21.7 1.1 -19.3 -7C-16.9 -15 -8.5 -21.8 0.3 -21.9C9 -22 18 -15.4 20.8 -6.6Z" fill="none" stroke="#ffffff" stroke-width="20"></path></g><g transform="translate(159 293)"><path d="M17.2 -5.7C19.2 0.7 15.8 8.8 9.7 13.1C3.7 17.4 -4.9 18 -10 14.2C-15.1 10.4 -16.7 2.2 -14.4 -4.5C-12.2 -11.2 -6.1 -16.4 0.7 -16.7C7.6 -16.9 15.2 -12.1 17.2 -5.7Z" fill="none" stroke="#ffffff" stroke-width="20"></path></g><g transform="translate(35 595)"><path d="M29.8 -10.7C33.2 0.8 26.8 14.5 16.6 21.6C6.3 28.8 -7.7 29.4 -16.3 23C-24.8 16.7 -27.8 3.4 -24.1 -8.4C-20.5 -20.2 -10.2 -30.4 1.5 -30.9C13.2 -31.4 26.4 -22.1 29.8 -10.7Z" fill="none" stroke="#ffffff" stroke-width="20"></path></g><g transform="translate(780 338)"><path d="M25.1 -8.4C28.9 3.3 25.6 17 16.1 24.3C6.7 31.7 -8.9 32.7 -18 25.8C-27.1 18.9 -29.7 4.2 -25.6 -7.9C-21.5 -20.1 -10.8 -29.7 0 -29.7C10.7 -29.7 21.4 -20.1 25.1 -8.4Z" fill="none" stroke="#ffffff" stroke-width="20"></path></g><g transform="translate(755 598)"><path d="M27.7 -9.2C31.1 1.6 25.8 14.9 16.4 21.5C7 28.1 -6.6 28 -15.9 21.3C-25.1 14.7 -30.1 1.7 -26.7 -9C-23.3 -19.6 -11.7 -27.8 0.2 -27.9C12.1 -27.9 24.2 -19.9 27.7 -9.2Z" fill="none" stroke="#ffffff" stroke-width="20"></path></g><g transform="translate(743 146)"><path d="M24 -8.5C26.8 0.7 21.7 11.7 13.4 17.5C5.1 23.3 -6.3 23.8 -14.3 18.3C-22.3 12.8 -26.8 1.3 -23.9 -8.1C-20.9 -17.5 -10.5 -24.8 0.1 -24.9C10.6 -24.9 21.3 -17.6 24 -8.5Z" fill="none" stroke="#ffffff" stroke-width="20"></path></g><g transform="translate(613 13)"><path d="M20.3 -6.4C22.9 1.6 19.4 11.7 12.6 16.5C5.7 21.4 -4.5 20.8 -11.9 15.6C-19.3 10.4 -23.8 0.6 -21.4 -7.1C-18.9 -14.9 -9.5 -20.5 -0.3 -20.4C8.8 -20.3 17.6 -14.4 20.3 -6.4Z" fill="none" stroke="#ffffff" stroke-width="20"></path></g><g transform="translate(133 168)"><path d="M26.3 -9.6C29.8 2.1 25.3 15.3 16.4 21.5C7.6 27.6 -5.6 26.7 -14.7 20.1C-23.8 13.5 -28.9 1.2 -25.8 -10C-22.6 -21.2 -11.3 -31.3 0.1 -31.3C11.4 -31.4 22.9 -21.3 26.3 -9.6Z" fill="none" stroke="#ffffff" stroke-width="20"></path></g><g transform="translate(207 482)"><path d="M28.2 -10.6C31.5 1.1 25.8 14.3 16.3 20.8C6.9 27.2 -6.3 27 -16.4 20.2C-26.6 13.4 -33.7 0 -30.5 -11.5C-27.2 -23.1 -13.6 -32.9 -0.6 -32.7C12.4 -32.5 24.9 -22.3 28.2 -10.6Z" fill="none" stroke="#ffffff" stroke-width="20"></path></g><g transform="translate(272 575)"><path d="M23.6 -7.8C26.7 1.6 22.4 13.3 13.9 19.5C5.5 25.8 -7.2 26.6 -15.5 20.7C-23.7 14.9 -27.5 2.3 -24.2 -7.5C-20.9 -17.3 -10.4 -24.3 -0.1 -24.3C10.3 -24.3 20.6 -17.2 23.6 -7.8Z" fill="none" stroke="#ffffff" stroke-width="20"></path></g><g transform="translate(871 590)"><path d="M18.4 -5.6C20.9 1.7 17.9 11.1 11.3 16.1C4.6 21 -5.7 21.5 -11.5 17C-17.4 12.4 -18.8 2.9 -16.1 -4.6C-13.5 -12.1 -6.7 -17.7 0.6 -17.9C8 -18.1 15.9 -12.9 18.4 -5.6Z" fill="none" stroke="#ffffff" stroke-width="20"></path></g><g transform="translate(336 273)"><path d="M27.9 -9.4C31.7 2.5 27.2 16.9 17.7 23.5C8.3 30.2 -6.1 29.2 -15.8 22C-25.6 14.9 -30.7 1.6 -27.3 -9.8C-23.9 -21.3 -12 -30.8 0.1 -30.9C12.1 -30.9 24.2 -21.3 27.9 -9.4Z" fill="none" stroke="#ffffff" stroke-width="20"></path></g><g transform="translate(742 35)"><path d="M19.6 -6.5C22.2 1.8 19.1 11.9 12.7 16.3C6.3 20.7 -3.4 19.4 -10.1 14.4C-16.8 9.5 -20.4 0.8 -18.2 -6.8C-16 -14.5 -8 -21.1 0.2 -21.2C8.4 -21.2 16.9 -14.7 19.6 -6.5Z" fill="none" stroke="#ffffff" stroke-width="20"></path></g><g transform="translate(457 336)"><path d="M27.8 -9.7C30.8 0.2 24.4 12.4 14.9 18.9C5.4 25.4 -7 26.1 -15.7 20.2C-24.4 14.2 -29.3 1.5 -26.1 -8.7C-22.8 -19 -11.4 -26.8 0.5 -27C12.4 -27.1 24.8 -19.6 27.8 -9.7Z" fill="none" stroke="#ffffff" stroke-width="20"></path></g><g transform="translate(3 395)"><path d="M21.1 -6.7C24.3 2.9 21.7 14.6 14.4 20C7 25.3 -5 24.4 -13.2 18.4C-21.4 12.4 -25.7 1.3 -22.9 -7.8C-20.1 -17 -10 -24.2 -0.5 -24C9 -23.9 17.9 -16.3 21.1 -6.7Z" fill="none" stroke="#ffffff" stroke-width="20"></path></g></g></svg>