<svg id="visual" viewBox="0 0 900 600" width="900" height="600" xmlns="http://www.w3.org/2000/svg" xmlns:xlink="http://www.w3.org/1999/xlink" version="1.1"><rect x="0" y="0" width="900" height="600" fill="#001220"></rect><defs><linearGradient id="grad1_0" x1="33.3%" y1="0%" x2="100%" y2="100%"><stop offset="20%" stop-color="#001220" stop-opacity="1"></stop><stop offset="80%" stop-color="#001220" stop-opacity="1"></stop></linearGradient></defs><defs><linearGradient id="grad2_0" x1="0%" y1="0%" x2="66.7%" y2="100%"><stop offset="20%" stop-color="#001220" stop-opacity="1"></stop><stop offset="80%" stop-color="#001220" stop-opacity="1"></stop></linearGradient></defs><g transform="translate(900, 0)"><path d="M0 297.5C-15.1 249.7 -30.3 201.9 -65.5 201.6C-100.7 201.3 -156.1 248.6 -174.8 240.6C-193.6 232.7 -175.9 169.6 -190.1 138.1C-204.4 106.6 -250.7 106.8 -273.9 89C-297.1 71.2 -297.3 35.6 -297.5 0L0 0Z" fill="#FBAE3C"></path></g><g transform="translate(0, 600)"><path d="M0 -297.5C24.3 -264.4 48.6 -231.3 69.8 -214.9C91.1 -198.6 109.4 -199 144.6 -199C179.8 -199.1 231.9 -198.7 240.6 -174.8C249.4 -151 214.6 -103.5 216.8 -70.5C219.1 -37.4 258.3 -18.7 297.5 0L0 0Z" fill="#FBAE3C"></path></g></svg>