<svg id="visual" viewBox="0 0 900 600" width="900" height="600" xmlns="http://www.w3.org/2000/svg" xmlns:xlink="http://www.w3.org/1999/xlink" version="1.1"><rect x="0" y="0" width="900" height="600" fill="#001220"></rect><defs><linearGradient id="grad1_0" x1="33.3%" y1="0%" x2="100%" y2="100%"><stop offset="20%" stop-color="#001220" stop-opacity="1"></stop><stop offset="80%" stop-color="#001220" stop-opacity="1"></stop></linearGradient></defs><defs><linearGradient id="grad2_0" x1="0%" y1="0%" x2="66.7%" y2="100%"><stop offset="20%" stop-color="#001220" stop-opacity="1"></stop><stop offset="80%" stop-color="#001220" stop-opacity="1"></stop></linearGradient></defs><g transform="translate(900, 0)"><path d="M0 297.5C-26.9 285.3 -53.7 273.1 -87.1 268.2C-120.6 263.3 -160.6 265.7 -174.8 240.6C-189.1 215.6 -177.6 163.3 -182.8 132.8C-188.1 102.4 -210.2 93.9 -232.1 75.4C-254 56.9 -275.7 28.5 -297.5 0L0 0Z" fill="#FBAE3C"></path></g><g transform="translate(0, 600)"><path d="M0 -297.5C31.6 -295.2 63.2 -292.9 91.9 -282.9C120.6 -272.9 146.5 -255 170.5 -234.6C194.4 -214.2 216.5 -191.3 226.5 -164.6C236.6 -137.9 234.6 -107.5 244.4 -79.4C254.2 -51.4 275.8 -25.7 297.5 0L0 0Z" fill="#FBAE3C"></path></g></svg>