<svg id="visual" viewBox="0 0 900 450" width="900" height="450" xmlns="http://www.w3.org/2000/svg" xmlns:xlink="http://www.w3.org/1999/xlink" version="1.1"><rect x="0" y="0" width="900" height="450" fill="#001220"></rect><g fill="#FCAF3C"><circle r="12" cx="253" cy="10"></circle><circle r="5" cx="418" cy="123"></circle><circle r="7" cx="35" cy="402"></circle><circle r="8" cx="800" cy="172"></circle><circle r="6" cx="226" cy="363"></circle><circle r="7" cx="735" cy="150"></circle><circle r="10" cx="865" cy="166"></circle><circle r="5" cx="163" cy="402"></circle><circle r="5" cx="107" cy="124"></circle><circle r="10" cx="413" cy="60"></circle><circle r="6" cx="308" cy="386"></circle><circle r="4" cx="421" cy="309"></circle><circle r="9" cx="245" cy="350"></circle><circle r="8" cx="476" cy="146"></circle><circle r="10" cx="600" cy="77"></circle><circle r="4" cx="802" cy="420"></circle><circle r="5" cx="402" cy="375"></circle><circle r="5" cx="650" cy="186"></circle><circle r="7" cx="515" cy="44"></circle><circle r="8" cx="190" cy="145"></circle><circle r="7" cx="629" cy="5"></circle><circle r="10" cx="84" cy="19"></circle><circle r="5" cx="42" cy="121"></circle><circle r="7" cx="887" cy="62"></circle><circle r="9" cx="245" cy="265"></circle><circle r="5" cx="251" cy="242"></circle><circle r="7" cx="237" cy="79"></circle><circle r="5" cx="802" cy="77"></circle><circle r="5" cx="726" cy="257"></circle><circle r="6" cx="268" cy="90"></circle><circle r="5" cx="278" cy="230"></circle><circle r="4" cx="456" cy="327"></circle><circle r="6" cx="197" cy="191"></circle><circle r="7" cx="89" cy="276"></circle><circle r="10" cx="159" cy="8"></circle><circle r="8" cx="292" cy="421"></circle><circle r="5" cx="97" cy="332"></circle><circle r="4" cx="881" cy="209"></circle><circle r="8" cx="455" cy="375"></circle><circle r="7" cx="346" cy="229"></circle><circle r="4" cx="6" cy="402"></circle><circle r="5" cx="342" cy="413"></circle><circle r="6" cx="512" cy="92"></circle><circle r="10" cx="64" cy="329"></circle><circle r="7" cx="736" cy="44"></circle><circle r="4" cx="119" cy="43"></circle><circle r="7" cx="784" cy="256"></circle><circle r="8" cx="471" cy="293"></circle><circle r="8" cx="644" cy="401"></circle><circle r="8" cx="364" cy="337"></circle><circle r="6" cx="349" cy="155"></circle><circle r="10" cx="147" cy="112"></circle><circle r="5" cx="665" cy="410"></circle><circle r="7" cx="497" cy="66"></circle><circle r="5" cx="197" cy="285"></circle><circle r="6" cx="688" cy="64"></circle><circle r="8" cx="856" cy="361"></circle><circle r="9" cx="227" cy="419"></circle><circle r="6" cx="298" cy="53"></circle><circle r="8" cx="170" cy="44"></circle><circle r="6" cx="311" cy="199"></circle><circle r="5" cx="526" cy="200"></circle><circle r="4" cx="201" cy="11"></circle><circle r="6" cx="24" cy="203"></circle><circle r="7" cx="443" cy="222"></circle><circle r="4" cx="313" cy="137"></circle><circle r="8" cx="885" cy="182"></circle><circle r="4" cx="333" cy="332"></circle><circle r="6" cx="531" cy="313"></circle><circle r="6" cx="812" cy="109"></circle><circle r="10" cx="323" cy="161"></circle><circle r="9" cx="260" cy="442"></circle><circle r="7" cx="516" cy="338"></circle><circle r="4" cx="856" cy="243"></circle><circle r="9" cx="568" cy="307"></circle><circle r="10" cx="519" cy="223"></circle><circle r="8" cx="21" cy="273"></circle><circle r="10" cx="620" cy="149"></circle><circle r="4" cx="90" cy="419"></circle><circle r="7" cx="158" cy="140"></circle><circle r="5" cx="513" cy="2"></circle><circle r="5" cx="13" cy="90"></circle><circle r="6" cx="630" cy="260"></circle><circle r="5" cx="90" cy="190"></circle><circle r="10" cx="568" cy="348"></circle><circle r="9" cx="851" cy="23"></circle><circle r="5" cx="428" cy="167"></circle><circle r="7" cx="807" cy="378"></circle><circle r="10" cx="408" cy="241"></circle><circle r="8" cx="682" cy="332"></circle><circle r="5" cx="250" cy="386"></circle><circle r="8" cx="764" cy="403"></circle><circle r="4" cx="606" cy="286"></circle><circle r="7" cx="751" cy="311"></circle><circle r="7" cx="399" cy="262"></circle><circle r="9" cx="136" cy="136"></circle><circle r="4" cx="343" cy="105"></circle><circle r="8" cx="609" cy="48"></circle><circle r="7" cx="514" cy="434"></circle><circle r="4" cx="636" cy="351"></circle><circle r="9" cx="736" cy="382"></circle><circle r="6" cx="281" cy="5"></circle><circle r="5" cx="201" cy="66"></circle><circle r="5" cx="646" cy="78"></circle><circle r="8" cx="506" cy="307"></circle><circle r="5" cx="602" cy="187"></circle><circle r="9" cx="192" cy="446"></circle><circle r="5" cx="157" cy="367"></circle><circle r="9" cx="363" cy="260"></circle><circle r="4" cx="139" cy="439"></circle><circle r="4" cx="661" cy="448"></circle><circle r="5" cx="149" cy="326"></circle><circle r="9" cx="46" cy="14"></circle><circle r="9" cx="170" cy="116"></circle><circle r="9" cx="368" cy="220"></circle><circle r="6" cx="786" cy="224"></circle><circle r="8" cx="302" cy="269"></circle><circle r="9" cx="746" cy="279"></circle><circle r="6" cx="89" cy="165"></circle><circle r="4" cx="202" cy="425"></circle><circle r="10" cx="637" cy="297"></circle><circle r="6" cx="13" cy="14"></circle><circle r="5" cx="711" cy="192"></circle><circle r="8" cx="536" cy="394"></circle><circle r="9" cx="669" cy="239"></circle><circle r="8" cx="206" cy="44"></circle><circle r="4" cx="839" cy="290"></circle><circle r="8" cx="764" cy="207"></circle><circle r="8" cx="556" cy="115"></circle><circle r="9" cx="650" cy="274"></circle><circle r="10" cx="502" cy="280"></circle><circle r="5" cx="259" cy="137"></circle><circle r="9" cx="887" cy="19"></circle><circle r="7" cx="545" cy="264"></circle><circle r="7" cx="56" cy="90"></circle><circle r="6" cx="119" cy="71"></circle><circle r="6" cx="583" cy="112"></circle><circle r="10" cx="352" cy="436"></circle><circle r="8" cx="87" cy="56"></circle><circle r="7" cx="361" cy="57"></circle><circle r="8" cx="48" cy="439"></circle><circle r="6" cx="287" cy="298"></circle><circle r="7" cx="471" cy="40"></circle><circle r="6" cx="846" cy="179"></circle><circle r="10" cx="364" cy="28"></circle><circle r="8" cx="735" cy="332"></circle><circle r="8" cx="68" cy="71"></circle><circle r="7" cx="801" cy="50"></circle><circle r="7" cx="580" cy="269"></circle><circle r="5" cx="627" cy="207"></circle><circle r="9" cx="828" cy="323"></circle><circle r="5" cx="28" cy="47"></circle><circle r="7" cx="287" cy="120"></circle><circle r="8" cx="669" cy="204"></circle><circle r="9" cx="197" cy="92"></circle><circle r="4" cx="477" cy="183"></circle><circle r="7" cx="668" cy="371"></circle><circle r="7" cx="46" cy="370"></circle><circle r="5" cx="48" cy="200"></circle><circle r="10" cx="299" cy="29"></circle><circle r="7" cx="225" cy="25"></circle><circle r="7" cx="896" cy="415"></circle><circle r="4" cx="215" cy="165"></circle><circle r="6" cx="554" cy="237"></circle><circle r="5" cx="451" cy="114"></circle><circle r="4" cx="428" cy="405"></circle><circle r="4" cx="516" cy="407"></circle><circle r="5" cx="235" cy="298"></circle><circle r="5" cx="132" cy="259"></circle><circle r="9" cx="539" cy="366"></circle><circle r="9" cx="759" cy="18"></circle><circle r="4" cx="781" cy="346"></circle><circle r="7" cx="466" cy="5"></circle><circle r="5" cx="590" cy="411"></circle><circle r="4" cx="555" cy="31"></circle><circle r="5" cx="698" cy="228"></circle><circle r="5" cx="28" cy="324"></circle><circle r="5" cx="326" cy="309"></circle><circle r="6" cx="253" cy="212"></circle><circle r="9" cx="146" cy="66"></circle><circle r="10" cx="446" cy="33"></circle><circle r="5" cx="760" cy="373"></circle><circle r="8" cx="122" cy="163"></circle><circle r="6" cx="585" cy="380"></circle><circle r="5" cx="601" cy="250"></circle><circle r="7" cx="483" cy="108"></circle><circle r="10" cx="889" cy="120"></circle><circle r="5" cx="658" cy="101"></circle><circle r="9" cx="272" cy="409"></circle><circle r="7" cx="148" cy="202"></circle><circle r="8" cx="639" cy="125"></circle><circle r="9" cx="818" cy="6"></circle><circle r="5" cx="846" cy="409"></circle><circle r="8" cx="712" cy="114"></circle><circle r="7" cx="851" cy="99"></circle><circle r="4" cx="660" cy="320"></circle><circle r="7" cx="710" cy="435"></circle><circle r="9" cx="180" cy="369"></circle><circle r="8" cx="700" cy="371"></circle><circle r="5" cx="773" cy="130"></circle><circle r="5" cx="888" cy="306"></circle><circle r="5" cx="600" cy="436"></circle><circle r="5" cx="506" cy="124"></circle><circle r="5" cx="801" cy="332"></circle><circle r="6" cx="232" cy="188"></circle><circle r="4" cx="566" cy="91"></circle><circle r="4" cx="592" cy="334"></circle><circle r="7" cx="601" cy="362"></circle><circle r="8" cx="706" cy="302"></circle><circle r="9" cx="407" cy="99"></circle><circle r="10" cx="288" cy="343"></circle><circle r="4" cx="374" cy="405"></circle><circle r="5" cx="760" cy="426"></circle><circle r="10" cx="627" cy="373"></circle><circle r="7" cx="7" cy="439"></circle><circle r="9" cx="417" cy="197"></circle><circle r="7" cx="674" cy="286"></circle><circle r="7" cx="178" cy="168"></circle><circle r="7" cx="859" cy="313"></circle><circle r="6" cx="628" cy="445"></circle><circle r="9" cx="874" cy="433"></circle><circle r="4" cx="461" cy="268"></circle><circle r="6" cx="589" cy="220"></circle><circle r="6" cx="731" cy="76"></circle><circle r="10" cx="612" cy="121"></circle><circle r="10" cx="54" cy="163"></circle><circle r="8" cx="229" cy="127"></circle><circle r="5" cx="74" cy="379"></circle><circle r="8" cx="778" cy="88"></circle><circle r="8" cx="315" cy="225"></circle><circle r="4" cx="420" cy="357"></circle><circle r="4" cx="640" cy="28"></circle><circle r="10" cx="393" cy="323"></circle><circle r="8" cx="851" cy="432"></circle><circle r="7" cx="476" cy="390"></circle><circle r="10" cx="726" cy="411"></circle><circle r="6" cx="805" cy="309"></circle><circle r="10" cx="67" cy="244"></circle><circle r="5" cx="684" cy="37"></circle><circle r="8" cx="530" cy="19"></circle><circle r="7" cx="778" cy="304"></circle><circle r="8" cx="488" cy="13"></circle><circle r="7" cx="542" cy="149"></circle><circle r="8" cx="776" cy="154"></circle><circle r="4" cx="885" cy="394"></circle><circle r="4" cx="175" cy="300"></circle><circle r="6" cx="533" cy="79"></circle><circle r="5" cx="394" cy="447"></circle><circle r="6" cx="205" cy="127"></circle><circle r="6" cx="32" cy="253"></circle><circle r="7" cx="139" cy="287"></circle><circle r="6" cx="10" cy="115"></circle><circle r="7" cx="666" cy="139"></circle><circle r="5" cx="426" cy="82"></circle><circle r="10" cx="884" cy="268"></circle><circle r="7" cx="284" cy="158"></circle><circle r="9" cx="111" cy="237"></circle><circle r="10" cx="344" cy="366"></circle><circle r="5" cx="175" cy="222"></circle><circle r="9" cx="175" cy="430"></circle><circle r="9" cx="812" cy="214"></circle><circle r="9" cx="807" cy="273"></circle><circle r="6" cx="374" cy="149"></circle><circle r="8" cx="417" cy="16"></circle><circle r="7" cx="886" cy="154"></circle><circle r="8" cx="376" cy="125"></circle><circle r="6" cx="877" cy="41"></circle><circle r="5" cx="1" cy="174"></circle><circle r="5" cx="448" cy="148"></circle><circle r="5" cx="432" cy="280"></circle><circle r="4" cx="310" cy="357"></circle><circle r="7" cx="182" cy="341"></circle><circle r="5" cx="113" cy="427"></circle><circle r="7" cx="734" cy="124"></circle><circle r="4" cx="575" cy="146"></circle><circle r="8" cx="540" cy="437"></circle><circle r="9" cx="106" cy="383"></circle><circle r="7" cx="563" cy="412"></circle><circle r="4" cx="731" cy="175"></circle><circle r="7" cx="868" cy="81"></circle><circle r="8" cx="745" cy="98"></circle><circle r="4" cx="193" cy="394"></circle><circle r="4" cx="4" cy="308"></circle><circle r="5" cx="701" cy="152"></circle><circle r="6" cx="315" cy="429"></circle><circle r="6" cx="401" cy="162"></circle><circle r="5" cx="109" cy="311"></circle><circle r="6" cx="362" cy="182"></circle><circle r="4" cx="471" cy="234"></circle><circle r="4" cx="878" cy="328"></circle><circle r="7" cx="789" cy="448"></circle><circle r="4" cx="768" cy="60"></circle><circle r="7" cx="158" cy="271"></circle><circle r="4" cx="227" cy="222"></circle><circle r="10" cx="560" cy="387"></circle><circle r="10" cx="259" cy="113"></circle><circle r="7" cx="819" cy="404"></circle><circle r="5" cx="840" cy="143"></circle><circle r="10" cx="117" cy="6"></circle><circle r="8" cx="25" cy="141"></circle><circle r="5" cx="325" cy="285"></circle><circle r="8" cx="831" cy="197"></circle><circle r="4" cx="279" cy="379"></circle><circle r="10" cx="502" cy="377"></circle><circle r="8" cx="369" cy="300"></circle><circle r="8" cx="504" cy="156"></circle><circle r="4" cx="628" cy="63"></circle><circle r="8" cx="861" cy="132"></circle><circle r="10" cx="345" cy="389"></circle><circle r="7" cx="610" cy="308"></circle><circle r="10" cx="571" cy="170"></circle><circle r="8" cx="498" cy="211"></circle><circle r="7" cx="707" cy="49"></circle><circle r="8" cx="153" cy="171"></circle><circle r="7" cx="655" cy="11"></circle><circle r="5" cx="7" cy="344"></circle><circle r="10" cx="825" cy="65"></circle><circle r="5" cx="472" cy="66"></circle><circle r="8" cx="226" cy="388"></circle><circle r="4" cx="789" cy="196"></circle><circle r="9" cx="503" cy="186"></circle><circle r="10" cx="712" cy="332"></circle><circle r="4" cx="306" cy="108"></circle><circle r="6" cx="892" cy="245"></circle><circle r="8" cx="60" cy="40"></circle><circle r="10" cx="301" cy="323"></circle><circle r="5" cx="677" cy="176"></circle><circle r="4" cx="753" cy="184"></circle><circle r="5" cx="727" cy="358"></circle><circle r="5" cx="618" cy="396"></circle><circle r="10" cx="118" cy="364"></circle><circle r="4" cx="493" cy="448"></circle><circle r="6" cx="373" cy="82"></circle><circle r="6" cx="748" cy="237"></circle><circle r="8" cx="632" cy="325"></circle><circle r="8" cx="796" cy="13"></circle><circle r="7" cx="125" cy="197"></circle><circle r="9" cx="737" cy="211"></circle><circle r="4" cx="273" cy="319"></circle><circle r="7" cx="340" cy="43"></circle><circle r="10" cx="385" cy="184"></circle><circle r="8" cx="213" cy="263"></circle><circle r="5" cx="350" cy="204"></circle><circle r="10" cx="331" cy="78"></circle><circle r="6" cx="274" cy="191"></circle><circle r="8" cx="169" cy="91"></circle><circle r="9" cx="717" cy="3"></circle><circle r="7" cx="405" cy="420"></circle><circle r="4" cx="549" cy="185"></circle><circle r="10" cx="838" cy="343"></circle><circle r="8" cx="113" cy="277"></circle><circle r="8" cx="32" cy="230"></circle><circle r="8" cx="699" cy="411"></circle><circle r="4" cx="84" cy="353"></circle><circle r="6" cx="119" cy="103"></circle><circle r="6" cx="347" cy="129"></circle><circle r="5" cx="1" cy="67"></circle><circle r="5" cx="391" cy="3"></circle><circle r="5" cx="267" cy="33"></circle><circle r="8" cx="64" cy="134"></circle><circle r="9" cx="203" cy="361"></circle><circle r="6" cx="269" cy="267"></circle><circle r="9" cx="6" cy="242"></circle><circle r="4" cx="420" cy="437"></circle><circle r="5" cx="399" cy="213"></circle><circle r="10" cx="693" cy="266"></circle><circle r="7" cx="94" cy="84"></circle><circle r="10" cx="439" cy="63"></circle><circle r="5" cx="244" cy="165"></circle><circle r="5" cx="197" cy="230"></circle><circle r="4" cx="455" cy="88"></circle><circle r="6" cx="384" cy="282"></circle><circle r="4" cx="665" cy="61"></circle><circle r="4" cx="471" cy="420"></circle><circle r="8" cx="840" cy="381"></circle><circle r="4" cx="54" cy="302"></circle><circle r="10" cx="574" cy="15"></circle><circle r="7" cx="324" cy="261"></circle><circle r="5" cx="576" cy="246"></circle><circle r="7" cx="279" cy="68"></circle><circle r="5" cx="122" cy="336"></circle><circle r="4" cx="519" cy="248"></circle><circle r="10" cx="711" cy="25"></circle><circle r="7" cx="478" cy="354"></circle><circle r="8" cx="489" cy="329"></circle><circle r="7" cx="447" cy="440"></circle><circle r="6" cx="29" cy="299"></circle><circle r="4" cx="579" cy="43"></circle><circle r="8" cx="596" cy="138"></circle><circle r="9" cx="143" cy="37"></circle><circle r="7" cx="683" cy="394"></circle><circle r="9" cx="425" cy="382"></circle><circle r="9" cx="377" cy="430"></circle><circle r="7" cx="556" cy="59"></circle><circle r="7" cx="622" cy="238"></circle><circle r="6" cx="211" cy="333"></circle><circle r="9" cx="838" cy="266"></circle><circle r="7" cx="685" cy="105"></circle><circle r="10" cx="529" cy="116"></circle><circle r="7" cx="123" cy="400"></circle><circle r="5" cx="483" cy="258"></circle><circle r="7" cx="820" cy="244"></circle><circle r="8" cx="643" cy="163"></circle><circle r="8" cx="493" cy="407"></circle><circle r="5" cx="825" cy="431"></circle><circle r="8" cx="86" cy="213"></circle><circle r="7" cx="684" cy="13"></circle><circle r="9" cx="40" cy="348"></circle><circle r="7" cx="84" cy="108"></circle><circle r="9" cx="576" cy="437"></circle><circle r="9" cx="154" cy="243"></circle><circle r="4" cx="66" cy="276"></circle><circle r="8" cx="322" cy="11"></circle><circle r="9" cx="297" cy="446"></circle><circle r="7" cx="241" cy="52"></circle><circle r="4" cx="574" cy="196"></circle><circle r="8" cx="388" cy="55"></circle><circle r="5" cx="603" cy="7"></circle><circle r="9" cx="852" cy="215"></circle><circle r="8" cx="709" cy="84"></circle><circle r="10" cx="470" cy="208"></circle><circle r="6" cx="431" cy="336"></circle><circle r="5" cx="65" cy="422"></circle><circle r="5" cx="867" cy="288"></circle><circle r="10" cx="43" cy="71"></circle><circle r="9" cx="234" cy="443"></circle><circle r="6" cx="898" cy="352"></circle><circle r="6" cx="1" cy="146"></circle><circle r="4" cx="435" cy="254"></circle><circle r="7" cx="369" cy="376"></circle><circle r="9" cx="810" cy="149"></circle><circle r="8" cx="450" cy="191"></circle><circle r="4" cx="14" cy="371"></circle><circle r="5" cx="826" cy="40"></circle><circle r="9" cx="78" cy="441"></circle><circle r="7" cx="647" cy="225"></circle><circle r="6" cx="181" cy="258"></circle><circle r="8" cx="30" cy="175"></circle><circle r="9" cx="737" cy="433"></circle><circle r="9" cx="553" cy="210"></circle><circle r="10" cx="687" cy="435"></circle><circle r="6" cx="773" cy="277"></circle><circle r="6" cx="235" cy="329"></circle><circle r="6" cx="785" cy="393"></circle><circle r="7" cx="355" cy="5"></circle><circle r="8" cx="635" cy="102"></circle><circle r="4" cx="635" cy="423"></circle><circle r="7" cx="380" cy="239"></circle><circle r="5" cx="178" cy="67"></circle><circle r="8" cx="549" cy="329"></circle><circle r="4" cx="295" cy="180"></circle><circle r="7" cx="783" cy="34"></circle><circle r="6" cx="78" cy="305"></circle><circle r="4" cx="552" cy="287"></circle><circle r="8" cx="387" cy="353"></circle><circle r="5" cx="5" cy="218"></circle><circle r="8" cx="68" cy="185"></circle><circle r="7" cx="130" cy="224"></circle><circle r="6" cx="808" cy="354"></circle><circle r="6" cx="69" cy="2"></circle><circle r="5" cx="197" cy="314"></circle><circle r="4" cx="891" cy="85"></circle><circle r="6" cx="690" cy="128"></circle><circle r="7" cx="404" cy="36"></circle><circle r="6" cx="469" cy="447"></circle><circle r="9" cx="306" cy="75"></circle><circle r="6" cx="851" cy="47"></circle><circle r="8" cx="577" cy="71"></circle><circle r="6" cx="878" cy="369"></circle><circle r="6" cx="529" cy="285"></circle><circle r="8" cx="741" cy="4"></circle><circle r="4" cx="397" cy="137"></circle><circle r="7" cx="452" cy="350"></circle><circle r="10" cx="249" cy="415"></circle><circle r="10" cx="169" cy="191"></circle><circle r="7" cx="528" cy="169"></circle><circle r="9" cx="140" cy="384"></circle><circle r="8" cx="62" cy="220"></circle><circle r="4" cx="673" cy="83"></circle><circle r="10" cx="225" cy="2"></circle><circle r="6" cx="658" cy="345"></circle><circle r="8" cx="20" cy="420"></circle><circle r="4" cx="785" cy="110"></circle><circle r="9" cx="145" cy="89"></circle><circle r="8" cx="452" cy="406"></circle><circle r="7" cx="265" cy="361"></circle><circle r="8" cx="760" cy="258"></circle><circle r="10" cx="143" cy="416"></circle><circle r="8" cx="61" cy="398"></circle><circle r="9" cx="757" cy="345"></circle><circle r="10" cx="406" cy="290"></circle><circle r="4" cx="551" cy="8"></circle><circle r="6" cx="256" cy="286"></circle><circle r="7" cx="217" cy="104"></circle><circle r="5" cx="307" cy="246"></circle><circle r="7" cx="608" cy="98"></circle><circle r="7" cx="329" cy="448"></circle><circle r="5" cx="86" cy="140"></circle><circle r="8" cx="495" cy="238"></circle><circle r="9" cx="448" cy="298"></circle><circle r="8" cx="623" cy="176"></circle><circle r="10" cx="288" cy="209"></circle><circle r="8" cx="836" cy="117"></circle><circle r="9" cx="460" cy="168"></circle><circle r="8" cx="714" cy="277"></circle><circle r="5" cx="133" cy="309"></circle><circle r="10" cx="730" cy="300"></circle><circle r="5" cx="1" cy="39"></circle><circle r="8" cx="593" cy="163"></circle><circle r="5" cx="722" cy="229"></circle><circle r="4" cx="898" cy="445"></circle><circle r="8" cx="350" cy="280"></circle><circle r="9" cx="826" cy="165"></circle><circle r="10" cx="338" cy="183"></circle><circle r="10" cx="770" cy="326"></circle><circle r="9" cx="684" cy="308"></circle><circle r="7" cx="438" cy="2"></circle><circle r="4" cx="92" cy="251"></circle><circle r="10" cx="352" cy="316"></circle><circle r="8" cx="384" cy="102"></circle><circle r="5" cx="398" cy="78"></circle><circle r="7" cx="831" cy="87"></circle><circle r="10" cx="862" cy="391"></circle></g></svg>